<?xml version="1.0" encoding="utf-8"?>
<!-- Svg Vector Icons : http://www.onlinewebfonts.com/icon -->
<!DOCTYPE svg PUBLIC "-//W3C//DTD SVG 1.1//EN" "http://www.w3.org/Graphics/SVG/1.1/DTD/svg11.dtd">
<svg version="1.1" xmlns="http://www.w3.org/2000/svg" xmlns:xlink="http://www.w3.org/1999/xlink" x="0px" y="0px" viewBox="0 0 1000 1000" enable-background="new 0 0 1000 1000" xml:space="preserve">
<metadata> Svg Vector Icons : http://www.onlinewebfonts.com/icon </metadata>
<g><path d="M255,867.5h122.5V745H255V867.5z M295.8,785.8h40.8v40.8h-40.8V785.8z"/><path d="M255,704.2h122.5V581.7H255V704.2z M295.8,622.5h40.8v40.8h-40.8V622.5z"/><path d="M765.3,214.2H743c-9.5-46.5-50.7-81.7-100.1-81.7h-20.4C622.5,64.8,567.7,10,500,10c-67.7,0-122.5,54.8-122.5,122.5h-20.4c-49.5,0-90.6,35.1-100.1,81.7h-22.3c-56.5,0-102.2,45.8-102.2,102.2v571.4c0,56.6,45.8,102.2,102.2,102.2h530.6c56.5,0,102.2-45.8,102.2-102.2V316.4C867.5,259.8,821.7,214.2,765.3,214.2z M500,71.2c33.8,0,61.3,27.4,61.3,61.3s-27.4,61.3-61.3,61.3c-33.8,0-61.3-27.4-61.3-61.3S466.2,71.2,500,71.2z M826.7,887.9c0,33.9-27.2,61.3-61.2,61.3h-531c-33.8,0-61.2-27.4-61.2-61.3V316.3c0-33.9,27.2-61.3,61.2-61.3H255v81.7h490V255h20.5c33.8,0,61.2,27.4,61.2,61.3V887.9z"/><path d="M459.2,459.2H745V500H459.2V459.2z"/><path d="M459.2,622.5H745v40.8H459.2V622.5z"/><path d="M459.2,785.8H745v40.8H459.2V785.8z"/><path d="M255,540.8h122.5V418.3H255V540.8z M295.8,459.2h40.8V500h-40.8V459.2z"/></g>
</svg>